# xmcd
#
# Track frame offsets:
#	150
#	10700
#	20615
#	29925
#	40335
#	51080
#	61177
#	71397
#	80350
#	91420
#	102572
#	112170
#	123170
#	135137
#	144287
#	153347
#	164142
#	175357
#	186942
#	198295
#	213720
#	224060
#	237899
#	248002
#	256447
#	266432
#	277154
#	285477
#	296699
#	306032
#	315129
#	324654
#	333364
#	343042
#
# Disc length: 4700 seconds
#
# Revision: 0
# Processed by: cddbd v1.5.2PL0 Copyright (c) Steve Scherf et al.
# Submitted via: EasyCDDAExtractor 11.0.2.1
#
DISCID=02125a22
DTITLE=The Everly Brothers - The Everly Brothers - Perfect Harmony - cd 1-2
DYEAR=1900
DGENRE=country
TTITLE0=Bye bye love
TTITLE1=I wonder if I care as much
TTITLE2=Wake up little Susie
TTITLE3=This little girl of mine
TTITLE4=All I have to do is dream
TTITLE5=Claudette
TTITLE6=Bird dog
TTITLE7=Problems
TTITLE8=Devoted to you
TTITLE9=Take a message to Mary
TTITLE10=Poor Jenny
TTITLE11=('till) I kissed you
TTITLE12=Let it be me
TTITLE13=Like strangers
TTITLE14=When will I be loved
TTITLE15=Cathy's clown
TTITLE16=Always it's you
TTITLE17=So sad ( to watch good love go bad)
TTITLE18=Lucille
TTITLE19=Don't blame me
TTITLE20=Walk right back
TTITLE21=Ebony eyes
TTITLE22=Temtation
TTITLE23=Stick with me baby
TTITLE24=Muskrat
TTITLE25=That's old fashioned (that's teh way love should be)
TTITLE26=How can I meet her?
TTITLE27=Don't ask me to be friends
TTITLE28=True love (from 'high society')
TTITLE29=Crying in the rain
TTITLE30=No one can make my sunshine smile
TTITLE31=(so it was - so it is) So it always will be
TTITLE32=It's been nice
TTITLE33=The girl sang the blues
EXTD=
EXTT0=
EXTT1=
EXTT2=
EXTT3=
EXTT4=
EXTT5=
EXTT6=
EXTT7=
EXTT8=
EXTT9=
EXTT10=
EXTT11=
EXTT12=
EXTT13=
EXTT14=
EXTT15=
EXTT16=
EXTT17=
EXTT18=
EXTT19=
EXTT20=
EXTT21=
EXTT22=
EXTT23=
EXTT24=
EXTT25=
EXTT26=
EXTT27=
EXTT28=
EXTT29=
EXTT30=
EXTT31=
EXTT32=
EXTT33=
PLAYORDER=
